<?xml version="1.0" encoding="UTF-8"?>
<!-- Generated by Pixelmator Pro 3.7.1 -->
<svg width="40" height="40" viewBox="0 0 40 40" xmlns="http://www.w3.org/2000/svg">
    <path id="Path" fill="#02569b" stroke="none" d="M 11 3 L 29 3 C 33.418278 3 37 6.581722 37 11 L 37 29 C 37 33.418278 33.418278 37 29 37 L 11 37 C 6.581722 37 3 33.418278 3 29 L 3 11 C 3 6.581722 6.581722 3 11 3 Z"/>
    <path id="path1" fill="none" stroke="#ffffff" stroke-width="2.1" stroke-linecap="round" stroke-linejoin="round" d="M 13.2 10.5 L 10.7 10.5 C 9.7611 10.5 9 11.28113 9 12.244738 L 9 17.06842 C 9 17.997032 8.4569 18.834711 7.6225 19.194128 L 6.72 19.582895 C 6.3467 19.743719 6.3467 20.756281 6.72 20.917105 L 7.6225 21.305872 C 8.4569 21.665289 9 22.502968 9 23.43158 L 9 28.255262 C 9 29.21887 9.7611 30 10.7 30 L 13.2 30"/>
    <path id="path2" fill="none" stroke="#ffffff" stroke-width="2.1" stroke-linecap="round" stroke-linejoin="round" d="M 26.799999 10.5 L 29.299999 10.5 C 30.238899 10.5 31 11.28113 31 12.244738 L 31 17.06842 C 31 17.997032 31.5431 18.834711 32.377502 19.194128 L 33.279999 19.582895 C 33.653301 19.743719 33.653301 20.756281 33.279999 20.917105 L 32.377502 21.305872 C 31.5431 21.665289 31 22.502968 31 23.43158 L 31 28.255262 C 31 29.21887 30.238899 30 29.299999 30 L 26.799999 30"/>
    <g id="Group">
        <path id="path3" fill="#54c5f8" stroke="none" d="M 20.207966 12.54311 L 13.27 19.481073 L 15.409456 21.620531 L 24.486879 12.54311 L 20.207966 12.54311 Z"/>
        <path id="path4" fill="#54c5f8" stroke="none" d="M 20.207966 18.961964 L 16.614416 22.555513 L 20.207966 26.149063 L 24.486879 26.149063 L 20.89333 22.555513 L 24.486879 18.961964 L 20.207966 18.961964 Z"/>
        <path id="Path-copy" fill="#40c4ff" fill-opacity="0.536719" stroke="none" d="M 18.614416 24.555513 L 22.207966 28.149063 L 26.486879 28.149063 L 20.753872 22.416058 L 18.614416 24.555513 Z"/>
        <path id="path5" fill="#01579b" fill-opacity="0.85" stroke="none" d="M 16.614416 22.555513 L 20.207966 26.149063 L 24.486879 26.149063 L 18.753872 20.416058 L 16.614416 22.555513 Z"/>
        <path id="path6" fill="#40c4ff" stroke="none" d="M 20.89333 22.555513 L 18.753872 20.416058 L 16.614416 22.555513 L 18.753872 24.694969 L 20.89333 22.555513 Z"/>
    </g>
</svg>
